<svg height="395pt" viewBox="0 0 395.95031 395" width="395pt" xmlns="http://www.w3.org/2000/svg"><path d="m197.976562 396.421875c-107.316406 0-197.976562-93.902344-197.976562-205.050781 0-107.046875 86.960938-190.894532 197.976562-190.894532 111.011719 0 197.972657 83.847657 197.972657 190.894532 0 111.148437-90.660157 205.050781-197.972657 205.050781zm0-382.292969c-103.359374 0-184.320312 77.851563-184.320312 177.242188 0 103.746094 84.40625 191.398437 184.320312 191.398437 99.910157 0 184.320313-87.652343 184.320313-191.398437 0-99.390625-80.964844-177.242188-184.320313-177.242188zm0 0"/><path d="m262.828125 164.316406c10.648437 0 20.019531 5.421875 25.53125 13.652344 3.269531-4.882812 5.1875-10.75 5.1875-17.066406 0-16.964844-13.753906-30.71875-30.71875-30.71875s-30.71875 13.753906-30.71875 30.71875c0 6.316406 1.917969 12.183594 5.1875 17.066406 5.511719-8.230469 14.882813-13.652344 25.53125-13.652344zm0 0"/><path d="m133.121094 164.316406c10.648437 0 20.023437 5.421875 25.53125 13.652344 3.269531-4.882812 5.191406-10.75 5.191406-17.066406 0-16.964844-13.757812-30.71875-30.722656-30.71875s-30.71875 13.753906-30.71875 30.71875c0 6.316406 1.917968 12.183594 5.1875 17.066406 5.511718-8.230469 14.882812-13.652344 25.53125-13.652344zm0 0"/><path d="m300.375 334.980469h-204.800781c-3.769531 0-6.824219-3.054688-6.824219-6.824219v-109.226562c0-3.421876 2.53125-6.316407 5.921875-6.769532l102.402344-13.652344c.597656-.078124 1.203125-.078124 1.804687 0l102.402344 13.652344c3.386719.453125 5.921875 3.347656 5.921875 6.769532v109.226562c0 3.769531-3.058594 6.824219-6.828125 6.824219zm-197.972656-13.652344h191.144531v-96.421875l-95.570313-12.746094-95.574218 12.746094zm0 0"/><path d="m300.367188 225.757812c-3.105469 0-5.914063-2.136718-6.644532-5.296874-.847656-3.671876 1.441406-7.335938 5.113282-8.183594l88.75-20.480469c3.660156-.847656 7.335937 1.4375 8.1875 5.117187.847656 3.671876-1.441407 7.335938-5.117188 8.183594l-88.746094 20.480469c-.515625.121094-1.03125.179687-1.542968.179687zm0 0"/><path d="m95.582031 225.757812c-.511719 0-1.027343-.058593-1.542969-.179687l-88.746093-20.480469c-3.671875-.847656-5.964844-4.511718-5.117188-8.183594.851563-3.679687 4.53125-5.964843 8.191407-5.117187l88.746093 20.480469c3.671875.847656 5.960938 4.511718 5.117188 8.183594-.730469 3.160156-3.542969 5.296874-6.648438 5.296874zm0 0"/><path d="m75.101562 348.75c-2.195312 0-4.351562-1.058594-5.671874-3.019531-2.101563-3.128907-1.269532-7.371094 1.855468-9.472657l20.480469-13.769531c3.128906-2.101562 7.367187-1.273437 9.476563 1.859375 2.101562 3.125 1.269531 7.371094-1.855469 9.472656l-20.480469 13.765626c-1.171875.789062-2.496094 1.164062-3.804688 1.164062zm0 0"/><path d="m320.847656 348.75c-1.308594 0-2.632812-.375-3.804687-1.164062l-20.480469-13.765626c-3.125-2.101562-3.957031-6.347656-1.855469-9.472656 2.105469-3.132812 6.347657-3.964844 9.476563-1.859375l20.480468 13.769531c3.128907 2.101563 3.960938 6.34375 1.855469 9.472657-1.316406 1.960937-3.476562 3.019531-5.671875 3.019531zm0 0"/></svg>